Coordinates
version=1
nRows=7
nColumns=46
inDegrees=yes

Units are S.I. units (second, meters, Newtons, ...)
Angles are in degrees.

endheader
time	pelvis_tilt	pelvis_list	pelvis_rotation	pelvis_tx	pelvis_ty	pelvis_tz	bb_angle	bb_tx	bb_ty	bb_tz	hip_flexion_r	hip_adduction_r	hip_rotation_r	knee_angle_r	knee_angle_r_beta	ankle_angle_r	subtalar_angle_r	mtp_angle_r	crank_angle_r	hip_flexion_l	hip_adduction_l	hip_rotation_l	knee_angle_l	knee_angle_l_beta	ankle_angle_l	subtalar_angle_l	mtp_angle_l	crank_angle_l	lumbar_extension	lumbar_bending	lumbar_rotation	arm_flex_r	arm_add_r	arm_rot_r	elbow_flex_r	pro_sup_r	wrist_flex_r	wrist_dev_r	arm_flex_l	arm_add_l	arm_rot_l	elbow_flex_l	pro_sup_l	wrist_flex_l	wrist_dev_l
      0.00500000	    -26.24017974	      0.30267538	      4.87394408	      0.09597794	      1.06578153	     -0.25352913	      0.00000000	      0.50000000	      0.00000000	      0.25000000	     51.69115832	     -7.69867146	     -7.79893972	     45.70283538	      0.79766495	     -5.00268389	      0.00000000	      0.00000000	      0.00000000	     98.68998097	     -8.05208853	     -3.70927196	     97.58901970	      1.70324971	    -10.61587302	      0.35665365	      0.00000000	      0.00000000	    -44.08437161	     -0.32796616	     -0.58310272	     89.84782661	     -8.64879268	     34.20364467	     29.57894295	     23.36267165	      0.00000000	      0.00000000	     89.84495815	      5.70774074	     85.01554659	     76.83905813	     44.77489096	      0.00000000	      0.00000000
      0.01000000	    -26.25651332	      0.28297209	      4.85182062	      0.09594099	      1.06573872	     -0.25348276	      0.00000000	      0.50000000	      0.00000000	      0.25000000	     51.71204339	     -7.65752029	     -7.77396515	     45.68734507	      0.79739460	     -5.00132577	      0.00000000	      0.00000000	      0.00000000	     98.67409266	     -8.69870114	     -4.08366260	     97.59757338	      1.70339900	    -10.68424744	      0.35214023	      0.00000000	      0.00000000	    -44.07810473	     -0.28550192	     -0.59045495	     89.84577035	     -8.24348748	     32.83370871	     29.83555144	     22.06255327	      0.00000000	      0.00000000	     89.84461812	      5.53918709	     85.35752549	     76.50896269	     44.85632876	      0.00000000	      0.00000000
      0.01500000	    -26.26685281	      0.31292062	      4.85679247	      0.09593178	      1.06574356	     -0.25349792	      0.00000000	      0.50000000	      0.00000000	      0.25000000	     51.73026560	     -7.68877533	     -7.75973363	     45.70351493	      0.79767682	     -5.00037017	      0.00000000	      0.00000000	      0.00000000	     98.67959248	     -9.12956125	     -4.37855569	     97.64616428	      1.70424707	    -10.31632959	      0.30034772	      0.00000000	      0.00000000	    -44.07280611	     -0.31493700	     -0.59521016	     89.84587376	     -8.36860134	     33.30534434	     30.20785760	     20.06199265	      0.00000000	      0.00000000	     89.84477099	      5.61860178	     85.28774629	     76.12314458	     44.93408367	      0.00000000	      0.00000000
      0.02000000	    -26.34912274	      0.22569041	      5.05848870	      0.09571758	      1.06577986	     -0.25313409	      0.00000000	      0.50000000	      0.00000000	      0.25000000	     51.77851531	     -7.69766909	     -7.86038752	     45.70067627	      0.79762727	     -5.00023303	      0.00000000	      0.00000000	      0.00000000	     98.74190828	     -8.65656133	     -4.12756623	     97.48235217	      1.70138801	    -10.74862633	      0.34299702	      0.00000000	      0.00000000	    -44.01237549	     -0.16578074	     -0.73940693	     89.84722417	     -8.38060394	     33.63222421	     29.66767542	     22.95560867	      0.00000000	      0.00000000	     89.84597388	      5.63654228	     85.09081094	     75.94539666	     44.95226331	      0.00000000	      0.00000000
      0.02500000	    -26.21654955	      0.33485976	      5.07959800	      0.09587252	      1.06607196	     -0.25331830	      0.00000000	      0.50000000	      0.00000000	      0.25000000	     51.62338129	     -7.82978765	     -7.88554107	     45.68559571	      0.79736407	     -5.00013439	      0.00000000	      0.00000000	      0.00000000	     98.35505167	     -9.41245452	     -4.81589825	     97.35347150	      1.69913862	    -11.48550751	      0.39599772	      0.00000000	      0.00000000	    -44.19426410	     -0.17361255	     -0.89198863	     89.84294469	     -8.22459029	     32.80500648	     29.77005486	     23.61891535	      0.00000000	      0.00000000	     89.84593285	      5.38459862	     85.38029475	     75.78476022	     44.96636814	      0.00000000	      0.00000000
      0.03000000	    -26.08572696	      0.52800691	      5.09400409	      0.09623193	      1.06656173	     -0.25362597	      0.00000000	      0.50000000	      0.00000000	      0.25000000	     51.45692020	     -8.05056000	     -7.86245443	     45.66880808	      0.79707107	     -5.00010566	      0.00000000	      0.00000000	      0.00000000	     97.89661717	    -10.41419174	     -5.75470047	     97.25798267	      1.69747202	    -11.67447323	      0.39890190	      0.00000000	      0.00000000	    -44.34537299	     -0.35271110	     -0.88948192	     89.84710852	     -8.57288161	     33.77744607	     29.62601370	     23.83112083	      0.00000000	      0.00000000	     89.84531906	      5.65133374	     85.21300563	     75.72845971	     44.97125122	      0.00000000	      0.00000000
      0.03500000	    -25.85130979	      0.80303057	      5.15656583	      0.09664289	      1.06728347	     -0.25410343	      0.00000000	      0.50000000	      0.00000000	      0.25000000	     51.17901292	     -8.39902833	     -7.88963933	     45.65197198	      0.79677722	     -5.00007128	      0.00000000	      0.00000000	      0.00000000	     97.54996116	    -10.15664566	     -5.94010889	     97.27266228	      1.69772823	    -11.15428544	      0.32424199	      0.00000000	      0.00000000	    -44.67773306	     -0.40709412	     -1.21496059	     89.84412706	     -8.19316008	     32.75689893	     30.31914880	     20.83719513	      0.00000000	      0.00000000	     89.84528569	      5.35719407	     85.36260823	     75.65889371	     44.97750578	      0.00000000	      0.00000000
